<svg width="382" height="280" viewBox="0 0 382 280" fill="none" xmlns="http://www.w3.org/2000/svg">
<rect y="55.4116" width="325" height="360" rx="32" transform="rotate(-9.81675 0 55.4116)" fill="#1B53D6"/>
<path d="M69.3666 115.464L66.7715 110.977L55.7355 112.886L54.7991 117.985L51.8351 118.498L56.2706 94.7699L60.212 94.0879L72.3306 114.951L69.3666 115.464ZM58.6402 96.8281L56.2189 110.237L65.4261 108.644L58.6402 96.8281ZM74.756 114.532L71.8808 97.9145L74.4663 97.4671L75.0398 100.031C75.4821 98.9584 76.1381 98.1196 77.0076 97.5145C77.8772 96.9094 78.9111 96.5032 80.1093 96.2958L80.9606 96.1485L81.3971 98.671L80.4196 98.8402C79.4316 99.0111 78.6199 99.3248 77.9844 99.7812C77.3453 100.216 76.8541 100.756 76.5108 101.4C76.185 102.019 75.9824 102.726 75.9032 103.519C75.8449 104.308 75.8885 105.123 76.034 105.964L77.4362 114.068L74.756 114.532ZM88.7917 94.9884L93.2377 94.2191L93.6468 96.5839L89.2009 97.3532L90.6904 105.961C90.8868 107.096 91.253 107.899 91.789 108.369C92.3214 108.818 93.1867 108.939 94.3849 108.732L95.6146 108.519L96.0183 110.853L94.221 111.164C92.3291 111.491 90.9092 111.293 89.9613 110.569C89.0134 109.845 88.3794 108.559 88.0593 106.709L86.5207 97.817L83.809 98.2862L83.3998 95.9213L86.1115 95.4521L85.255 90.5017L87.9351 90.0379L88.7917 94.9884Z" fill="white"/>
</svg>
