<svg width="392" height="279" viewBox="0 0 392 279" fill="none" xmlns="http://www.w3.org/2000/svg">
<rect x="72.8945" width="325" height="360" rx="32" transform="rotate(11.6823 72.8945 0)" fill="#F45E41"/>
<path d="M113.468 60.1086C112.152 59.8365 110.974 59.8435 109.935 60.1296C108.916 60.42 108.02 60.91 107.245 61.5995C106.492 62.2933 105.869 63.1449 105.377 64.1542C104.89 65.1426 104.527 66.2113 104.29 67.3603C104.035 68.5929 103.941 69.7826 104.009 70.9295C104.077 72.0763 104.33 73.1197 104.767 74.0598C105.209 74.9789 105.85 75.7759 106.691 76.4508C107.536 77.1048 108.606 77.5657 109.901 77.8335C111.468 78.1575 112.851 78.1058 114.051 77.6785C115.25 77.2512 116.119 76.5267 116.657 75.5052L119.634 76.1207C118.773 77.8598 117.455 79.1232 115.68 79.9108C113.91 80.6775 111.792 80.8059 109.327 80.2962C107.614 79.942 106.178 79.3511 105.02 78.5235C103.863 77.696 102.959 76.6922 102.31 75.5123C101.682 74.3368 101.301 73.0164 101.168 71.5511C101.036 70.0859 101.14 68.5281 101.481 66.8777C101.818 65.2481 102.338 63.7872 103.041 62.4947C103.744 61.2023 104.627 60.1432 105.691 59.3175C106.759 58.471 107.989 57.8974 109.38 57.5968C110.775 57.2754 112.34 57.2939 114.074 57.6524C115.286 57.903 116.342 58.2738 117.242 58.765C118.164 59.2605 118.924 59.8533 119.522 60.5433C120.145 61.2168 120.608 61.9771 120.912 62.8242C121.221 63.6505 121.387 64.5344 121.41 65.4759L118.652 64.9057C118.563 63.7545 118.064 62.7472 117.153 61.8835C116.263 61.0242 115.035 60.4326 113.468 60.1086ZM121.854 82.625L125.269 66.1104L127.838 66.6417L127.432 69.2372C128.237 68.4015 129.154 67.8615 130.185 67.6171C131.216 67.3728 132.327 67.3738 133.518 67.62L134.364 67.7949L133.846 70.3019L132.874 70.101C131.892 69.898 131.022 69.8923 130.263 70.0841C129.509 70.2549 128.854 70.577 128.299 71.0503C127.769 71.5071 127.322 72.0899 126.957 72.7988C126.614 73.5121 126.356 74.2865 126.183 75.1221L124.518 83.1758L121.854 82.625ZM144.852 85.191C144.398 85.5981 143.91 85.9003 143.39 86.0978C142.87 86.2952 142.342 86.4257 141.806 86.4891C141.291 86.5569 140.776 86.5703 140.262 86.5293C139.769 86.4926 139.282 86.4246 138.801 86.3253C138.028 86.1654 137.316 85.9202 136.666 85.5897C136.015 85.2591 135.451 84.8266 134.974 84.2921C134.517 83.762 134.186 83.149 133.981 82.4531C133.798 81.7616 133.788 81.0189 133.952 80.225C134.146 79.2849 134.475 78.536 134.939 77.9784C135.428 77.4042 136.006 76.9791 136.673 76.7031C137.34 76.4271 138.065 76.2938 138.847 76.303C139.655 76.2957 140.487 76.3806 141.344 76.5577L146.201 77.5621C146.49 76.1623 146.416 74.9925 145.979 74.0524C145.546 73.0915 144.613 72.4411 143.18 72.1013C142.303 71.9198 141.499 71.9063 140.77 72.0605C140.041 72.2148 139.482 72.6002 139.093 73.2169L136.242 72.6273C136.544 71.9054 136.968 71.3287 137.514 70.8971C138.066 70.4447 138.679 70.1139 139.353 69.905C140.033 69.6751 140.745 69.55 141.49 69.5297C142.235 69.5095 142.962 69.5728 143.672 69.7196C144.905 69.9745 145.896 70.3972 146.645 70.9879C147.42 71.5619 147.999 72.2372 148.383 73.0137C148.771 73.7693 148.973 74.6388 148.987 75.6221C149.002 76.6054 148.888 77.682 148.646 78.852L146.8 87.783L144.575 87.323L144.852 85.191ZM142.826 79.1844C142.325 79.0807 141.738 78.9702 141.065 78.8529C140.417 78.719 139.778 78.6521 139.146 78.6521C138.514 78.6522 137.969 78.8118 137.511 79.131C137.074 79.4545 136.788 79.9401 136.654 80.5877C136.555 81.0682 136.565 81.4951 136.684 81.8682C136.803 82.2413 136.995 82.5752 137.261 82.8698C137.548 83.1687 137.889 83.4136 138.285 83.6045C138.682 83.7953 139.099 83.9361 139.538 84.0268C141.105 84.3508 142.415 84.2296 143.469 83.6633C144.548 83.0803 145.249 82.0598 145.572 80.6018L145.741 79.787L142.826 79.1844ZM152.525 88.9668L155.453 74.8024L152.758 74.2451L153.244 71.8949L155.939 72.4521L156.302 70.6972C156.682 68.8588 157.358 67.5934 158.329 66.901C159.3 66.2086 160.725 66.0567 162.606 66.4455L164.486 66.8343L164 69.1846L162.402 68.8541C161.274 68.6208 160.463 68.7474 159.97 69.2337C159.478 69.72 159.121 70.4959 158.901 71.5614L158.603 73.0029L163.021 73.9165L162.536 76.2668L158.117 75.3531L155.188 89.5175L152.525 88.9668ZM169.985 75.3563L174.403 76.2699L173.918 78.6202L169.499 77.7066L167.73 86.2616C167.497 87.3898 167.543 88.2708 167.87 88.9047C168.201 89.5177 168.961 89.9473 170.152 90.1935L171.374 90.4462L170.895 92.7651L169.109 92.3958C167.228 92.007 165.98 91.3023 165.363 90.2816C164.746 89.2609 164.628 87.8313 165.008 85.9929L166.835 77.1558L164.14 76.5986L164.626 74.2483L167.321 74.8055L168.339 69.8856L171.002 70.4364L169.985 75.3563Z" fill="white"/>
</svg>
