<svg width="108" height="54" viewBox="0 0 108 54" fill="none" xmlns="http://www.w3.org/2000/svg">
<rect x="3.99072" y="0.74707" width="106" height="130" rx="16" transform="rotate(13.6035 3.99072 0.74707)" fill="#7FDD06"/>
<path d="M15.7626 25.3068L19.1781 26.1333C19.9219 26.3133 20.5465 26.5893 21.0519 26.9612C21.5685 27.3263 21.9657 27.7681 22.2436 28.2867C22.5236 28.7962 22.6864 29.3733 22.732 30.0182C22.7798 30.6539 22.717 31.3301 22.5436 32.0468C22.3611 32.7612 22.1033 33.3902 21.7701 33.9338C21.4369 34.4773 21.0282 34.9162 20.544 35.2503C20.0711 35.5776 19.5249 35.7911 18.9054 35.8909C18.2881 35.9816 17.603 35.9358 16.85 35.7536L13.4346 34.9271L15.7626 25.3068ZM16.6863 26.6682L14.8786 34.1386L17.0285 34.6589C17.5184 34.7774 18.0031 34.8179 18.4828 34.7803C18.9737 34.7359 19.424 34.5616 19.8337 34.2574C20.2052 33.992 20.5138 33.649 20.7597 33.2283C21.0077 32.7986 21.1987 32.3071 21.3326 31.7537C21.4709 31.1822 21.5258 30.6577 21.4973 30.1803C21.4688 29.7029 21.3579 29.2679 21.1648 28.8755C20.9717 28.4831 20.6896 28.1411 20.3184 27.8496C19.9472 27.5581 19.4758 27.3433 18.9043 27.205L16.6863 26.6682ZM25.9936 27.5953C26.2113 27.648 26.3797 27.7656 26.4988 27.948C26.6201 28.1214 26.6533 28.3215 26.5984 28.5483C26.5435 28.7751 26.4214 28.9424 26.2321 29.0502C26.0427 29.158 25.8392 29.1856 25.6215 29.1329C25.3947 29.078 25.2263 28.9605 25.1163 28.7802C25.0062 28.5999 24.9787 28.3964 25.0336 28.1696C25.0884 27.9428 25.2049 27.779 25.383 27.678C25.5632 27.568 25.7668 27.5404 25.9936 27.5953ZM23.0512 37.2542L24.7865 30.0832L25.9432 30.3631L24.2078 37.5341L23.0512 37.2542ZM32.5405 39.4929C32.2946 40.5089 31.8293 41.2414 31.1445 41.6902C30.4597 42.1391 29.5685 42.2307 28.4708 41.9651C28.108 41.8773 27.7686 41.7519 27.4527 41.5891C27.1459 41.4284 26.8784 41.2244 26.6501 40.9771C26.4288 40.7411 26.2558 40.464 26.1311 40.1457C26.0134 39.8388 25.9632 39.4905 25.9806 39.101L27.1781 39.3908C27.182 39.6126 27.231 39.8069 27.3251 39.9737C27.426 40.1518 27.5528 40.3025 27.7054 40.4259C27.8558 40.5583 28.0264 40.6668 28.2172 40.7514C28.408 40.836 28.5986 40.9013 28.7891 40.9474C29.152 41.0352 29.4792 41.052 29.7708 40.9977C30.0603 40.9525 30.3108 40.8499 30.5223 40.6898C30.7339 40.5298 30.91 40.3179 31.0506 40.0543C31.1981 39.8019 31.3114 39.5124 31.3904 39.1858L31.6308 38.1925C31.294 38.5527 30.8859 38.7708 30.4066 38.8469C29.9294 38.9139 29.455 38.8903 28.9833 38.7761C28.4412 38.6354 27.9925 38.426 27.6373 38.1479C27.2842 37.8608 27.0202 37.5233 26.8452 37.1352C26.6703 36.7472 26.5719 36.3201 26.5503 35.8539C26.54 35.3809 26.5973 34.8858 26.7225 34.3688C26.8476 33.8517 27.0274 33.3863 27.262 32.9725C27.4988 32.5496 27.7882 32.2068 28.1303 31.9439C28.4746 31.6719 28.8694 31.4889 29.3146 31.395C29.7599 31.3011 30.2592 31.3211 30.8125 31.455C31.2298 31.556 31.633 31.7352 32.022 31.9926C32.4111 32.25 32.6999 32.5839 32.8887 32.9945L33.1604 32.1096L34.2626 32.3763L32.5405 39.4929ZM30.6575 32.5122C30.2674 32.4178 29.9188 32.4103 29.6115 32.4895C29.3064 32.5598 29.0392 32.6919 28.8097 32.8861C28.5894 33.0824 28.3989 33.334 28.2382 33.6408C28.0888 33.9408 27.9702 34.2722 27.8824 34.635C27.7858 35.0342 27.7365 35.3968 27.7344 35.7228C27.7345 36.0397 27.7922 36.3369 27.9075 36.6145C28.0228 36.8921 28.1989 37.1363 28.436 37.3473C28.6752 37.5493 28.9944 37.6985 29.3935 37.7951C29.8562 37.9071 30.2635 37.8904 30.6155 37.7451C30.9676 37.5999 31.2738 37.3859 31.5343 37.1032C31.7162 36.9072 31.8662 36.6842 31.9843 36.4343C32.1045 36.1753 32.1965 35.9143 32.2602 35.6512C32.3392 35.3246 32.3799 35.0176 32.3823 34.7301C32.3937 34.4448 32.3508 34.1655 32.2537 33.8923C32.1359 33.5854 31.9493 33.3049 31.6938 33.0511C31.4384 32.7972 31.093 32.6176 30.6575 32.5122ZM37.3817 30.3511C37.5994 30.4038 37.7678 30.5214 37.8869 30.7038C38.0082 30.8772 38.0414 31.0773 37.9865 31.3041C37.9316 31.5309 37.8095 31.6982 37.6202 31.806C37.4308 31.9138 37.2273 31.9414 37.0096 31.8887C36.7828 31.8338 36.6144 31.7163 36.5044 31.536C36.3943 31.3557 36.3668 31.1522 36.4217 30.9254C36.4765 30.6986 36.593 30.5348 36.7711 30.4338C36.9513 30.3238 37.1549 30.2962 37.3817 30.3511ZM34.4393 40.01L36.1746 32.839L37.3313 33.1189L35.5959 40.2899L34.4393 40.01ZM41.0651 34.0224L43.2694 34.5559L43.0225 35.5764L40.8181 35.043L39.9159 38.7714C39.8654 38.98 39.8273 39.1773 39.8015 39.3631C39.787 39.542 39.795 39.7072 39.8256 39.8586C39.8675 40.0032 39.942 40.1317 40.0492 40.2441C40.1678 40.3496 40.3393 40.4343 40.5639 40.4982C40.7725 40.5487 40.9628 40.5563 41.1345 40.5211C41.3154 40.488 41.4723 40.4348 41.6053 40.3613L41.9046 41.3268C41.6205 41.4693 41.3415 41.5507 41.0678 41.5708C40.794 41.591 40.5029 41.5638 40.1945 41.4891C39.8044 41.3948 39.491 41.2613 39.2543 41.0888C39.0197 40.9072 38.8381 40.6856 38.7093 40.424C38.6056 40.178 38.5606 39.9078 38.5742 39.6134C38.5878 39.319 38.6374 38.995 38.723 38.6412L39.6615 34.7631L38.4913 34.4799L38.7382 33.4594L39.9085 33.7426L40.4287 31.5926L41.5853 31.8725L41.0651 34.0224ZM47.8574 42.292C47.6527 42.4633 47.4352 42.5883 47.2049 42.667C46.9746 42.7458 46.7418 42.795 46.5065 42.8149C46.2803 42.837 46.055 42.8353 45.8307 42.8099C45.6155 42.7866 45.4036 42.7497 45.1949 42.6992C44.8593 42.618 44.5517 42.5003 44.2721 42.3462C43.9924 42.1922 43.7521 41.9948 43.5511 41.7541C43.3592 41.5156 43.2235 41.2427 43.1442 40.9354C43.074 40.6303 43.0806 40.3054 43.164 39.9607C43.2628 39.5525 43.4177 39.2299 43.6287 38.9929C43.851 38.749 44.11 38.5716 44.4057 38.4607C44.7014 38.3498 45.0202 38.3021 45.3622 38.3176C45.7154 38.3263 46.0779 38.3756 46.4499 38.4656L48.559 38.976C48.7061 38.3682 48.6909 37.8556 48.5134 37.4381C48.3382 37.0116 47.9398 36.7135 47.3182 36.5439C46.9372 36.4517 46.5862 36.434 46.2652 36.4908C45.9442 36.5475 45.6941 36.7079 45.515 36.9718L44.2767 36.6722C44.4193 36.361 44.6132 36.115 44.8586 35.9343C45.1062 35.7446 45.3791 35.6089 45.6773 35.5275C45.9777 35.4369 46.2908 35.3927 46.6168 35.3947C46.9428 35.3968 47.26 35.4351 47.5685 35.5098C48.1037 35.6393 48.5308 35.8387 48.8497 36.1079C49.18 36.3703 49.4233 36.674 49.5799 37.0192C49.7386 37.3553 49.8139 37.7384 49.8059 38.1686C49.7978 38.5988 49.7323 39.0679 49.6094 39.5759L48.6709 43.4539L47.7048 43.2201L47.8574 42.292ZM47.0597 39.6359C46.842 39.5832 46.5869 39.5263 46.2944 39.4651C46.0132 39.397 45.7345 39.3584 45.4582 39.3492C45.182 39.3399 44.9414 39.4017 44.7364 39.5346C44.5405 39.6696 44.4085 39.8777 44.3404 40.159C44.2899 40.3676 44.2879 40.5544 44.3345 40.7193C44.381 40.8842 44.4602 41.033 44.5721 41.1657C44.6931 41.3006 44.8389 41.4127 45.0093 41.502C45.1798 41.5912 45.3602 41.6589 45.5507 41.705C46.2311 41.8696 46.8058 41.8359 47.2749 41.6037C47.7553 41.3646 48.0769 40.9287 48.2396 40.2959L48.3252 39.9421L47.0597 39.6359ZM50.4628 43.8876L52.7909 34.2672L53.9475 34.5471L51.6194 44.1674L50.4628 43.8876Z" fill="black"/>
</svg>
